ffmpeg started on 2016-12-12 at 05:01:27
Report written to "Output/theora/results/ffmpeg/sintel4500k.log"
Command line:
Tools/ffmpeg/ffmpeg -benchmark -y -i Input/y4m/sintel.y4m -c:v libtheora -b:v 4500k -an Output/theora/encoded/sintel4500k.mkv
ffmpeg version N-82227-gdb23fde Copyright (c) 2000-2016 the FFmpeg developers
  built with gcc 5.4.0 (Ubuntu 5.4.0-6ubuntu1~16.04.2) 20160609
  configuration: --prefix=/home/jaroslav/ffmpeg_build --pkg-config-flags=--static --extra-cflags=-I/home/jaroslav/ffmpeg_build/include --extra-ldflags=-L/home/jaroslav/ffmpeg_build/lib --bindir=/home/jaroslav/bin --enable-gpl --enable-libass --enable-libfdk-aac --enable-libfreetype --enable-libmp3lame --enable-libopus --enable-libtheora --enable-libvorbis --enable-libvpx --enable-libx264 --enable-libx265 --enable-nvenc --enable-libmfx --enable-libxvid --enable-libgsm --enable-libopencore-amrnb --enable-version3 --enable-nonfree
  libavutil      55. 35.100 / 55. 35.100
  libavcodec     57. 66.101 / 57. 66.101
  libavformat    57. 57.100 / 57. 57.100
  libavdevice    57.  2.100 / 57.  2.100
  libavfilter     6. 66.100 /  6. 66.100
  libswscale      4.  3.100 /  4.  3.100
  libswresample   2.  4.100 /  2.  4.100
  libpostproc    54.  2.100 / 54.  2.100
Input #0, yuv4mpegpipe, from 'Input/y4m/sintel.y4m':
  Duration: 00:00:20.83, start: 0.000000, bitrate: 2057307 kb/s
    Stream #0:0: Video: rawvideo (I420 / 0x30323449), yuv420p(progressive), 4096x1744, SAR 1:1 DAR 256:109, 24 fps, 24 tbr, 24 tbn, 24 tbc
Output #0, matroska, to 'Output/theora/encoded/sintel4500k.mkv':
  Metadata:
    encoder         : Lavf57.57.100
    Stream #0:0: Video: theora (libtheora) (theo / 0x6F656874), yuv420p, 4096x1744 [SAR 1:1 DAR 256:109], q=2-31, 4500 kb/s, 24 fps, 1k tbn, 24 tbc
    Metadata:
      encoder         : Lavc57.66.101 libtheora
Stream mapping:
  Stream #0:0 -> #0:0 (rawvideo (native) -> theora (libtheora))
Press [q] to stop, [?] for help
frame=    3 fps=0.0 q=-0.0 size=       4kB time=00:00:00.08 bitrate= 380.5kbits/s speed=0.132x    frame=    5 fps=4.1 q=-0.0 size=       4kB time=00:00:00.16 bitrate= 190.2kbits/s speed=0.137x    frame=    7 fps=3.8 q=-0.0 size=       4kB time=00:00:00.25 bitrate= 127.3kbits/s speed=0.138x    frame=    9 fps=3.7 q=-0.0 size=       4kB time=00:00:00.33 bitrate=  95.7kbits/s speed=0.138x    frame=   11 fps=3.6 q=-0.0 size=       4kB time=00:00:00.41 bitrate=  76.5kbits/s speed=0.138x    frame=   13 fps=3.6 q=-0.0 size=     389kB time=00:00:00.50 bitrate=6364.1kbits/s speed=0.137x    frame=   16 fps=3.6 q=-0.0 size=     389kB time=00:00:00.62 bitrate=5093.3kbits/s speed=0.142x    frame=   18 fps=3.6 q=-0.0 size=     389kB time=00:00:00.70 bitrate=4497.1kbits/s speed=0.141x    frame=   19 fps=2.1 q=-0.0 size=     389kB time=00:00:00.75 bitrate=4245.6kbits/s speed=0.085x    frame=   20 fps=1.6 q=-0.0 size=     389kB time=00:00:00.79 bitrate=4020.7kbits/s speed=0.0631x    frame=   22 fps=1.7 q=-0.0 size=     389kB time=00:00:00.87 bitrate=3639.8kbits/s speed=0.0663x    frame=   24 fps=1.7 q=-0.0 size=     389kB time=00:00:00.95 bitrate=3324.7kbits/s speed=0.0693x    frame=   27 fps=1.9 q=-0.0 size=     862kB time=00:00:01.08 bitrate=6515.5kbits/s speed=0.0743x    frame=   29 fps=1.9 q=-0.0 size=     862kB time=00:00:01.16 bitrate=6046.9kbits/s speed=0.0768x    frame=   31 fps=2.0 q=-0.0 size=     862kB time=00:00:01.25 bitrate=5645.7kbits/s speed=0.0791x    frame=   33 fps=2.0 q=-0.0 size=     862kB time=00:00:01.33 bitrate=5294.4kbits/s speed=0.0812x    frame=   35 fps=2.1 q=-0.0 size=     862kB time=00:00:01.41 bitrate=4980.8kbits/s speed=0.0832x    frame=   37 fps=2.1 q=-0.0 size=    1252kB time=00:00:01.50 bitrate=6831.2kbits/s speed=0.085x    frame=   39 fps=2.1 q=-0.0 size=    1252kB time=00:00:01.58 bitrate=6473.2kbits/s speed=0.0864x    frame=   41 fps=2.2 q=-0.0 size=    1252kB time=00:00:01.66 bitrate=6147.3kbits/s speed=0.088x    frame=   43 fps=2.2 q=-0.0 size=    1252kB time=00:00:01.75 bitrate=5855.9kbits/s speed=0.0895x    frame=   45 fps=2.2 q=-0.0 size=    1252kB time=00:00:01.83 bitrate=5590.8kbits/s speed=0.0897x    frame=   47 fps=2.2 q=-0.0 size=    1252kB time=00:00:01.91 bitrate=5346.0kbits/s speed=0.0912x    frame=   49 fps=2.3 q=-0.0 size=    1611kB time=00:00:02.00 bitrate=6596.5kbits/s speed=0.0925x    frame=   52 fps=2.3 q=-0.0 size=    1611kB time=00:00:02.12 bitrate=6208.7kbits/s speed=0.095x    frame=   54 fps=2.3 q=-0.0 size=    1611kB time=00:00:02.20 bitrate=5975.4kbits/s speed=0.0961x    frame=   56 fps=2.4 q=-0.0 size=    1611kB time=00:00:02.29 bitrate=5756.5kbits/s speed=0.0971x    frame=   58 fps=2.4 q=-0.0 size=    1932kB time=00:00:02.37 bitrate=6661.2kbits/s speed=0.0981x    frame=   60 fps=2.4 q=-0.0 size=    1932kB time=00:00:02.45 bitrate=6436.4kbits/s speed=0.0987x    frame=   62 fps=2.4 q=-0.0 size=    1932kB time=00:00:02.54 bitrate=6223.8kbits/s speed=0.0995x    frame=   64 fps=2.4 q=-0.0 size=    1932kB time=00:00:02.62 bitrate=6027.1kbits/s speed= 0.1x    frame=   66 fps=2.5 q=-0.0 size=    2239kB time=00:00:02.70 bitrate=6771.3kbits/s speed=0.101x    frame=   68 fps=2.5 q=-0.0 size=    2297kB time=00:00:02.79 bitrate=6736.0kbits/s speed=0.102x    frame=   70 fps=2.5 q=-0.0 size=    2352kB time=00:00:02.87 bitrate=6698.3kbits/s speed=0.102x    frame=   72 fps=2.5 q=-0.0 size=    2381kB time=00:00:02.95 bitrate=6592.1kbits/s speed=0.102x    frame=   74 fps=2.5 q=-0.0 size=    2439kB time=00:00:03.04 bitrate=6565.4kbits/s speed=0.103x    frame=   76 fps=2.5 q=-0.0 size=    2519kB time=00:00:03.12 bitrate=6601.9kbits/s speed=0.103x    frame=   78 fps=2.5 q=-0.0 size=    2568kB time=00:00:03.20 bitrate=6556.7kbits/s speed=0.104x    frame=   80 fps=2.5 q=-0.0 size=    2623kB time=00:00:03.29 bitrate=6525.2kbits/s speed=0.104x    frame=   82 fps=2.5 q=-0.0 size=    2677kB time=00:00:03.37 bitrate=6496.3kbits/s speed=0.104x    frame=   84 fps=2.5 q=-0.0 size=    2739kB time=00:00:03.45 bitrate=6487.4kbits/s speed=0.104x    frame=   86 fps=2.5 q=-0.0 size=    2800kB time=00:00:03.54 bitrate=6474.9kbits/s speed=0.105x    frame=   88 fps=2.5 q=-0.0 size=    2858kB time=00:00:03.62 bitrate=6456.4kbits/s speed=0.105x    frame=   90 fps=2.5 q=-0.0 size=    2921kB time=00:00:03.70 bitrate=6451.1kbits/s speed=0.105x    frame=   92 fps=2.5 q=-0.0 size=    2954kB time=00:00:03.79 bitrate=6380.7kbits/s speed=0.105x    frame=   94 fps=2.6 q=-0.0 size=    2954kB time=00:00:03.87 bitrate=6244.0kbits/s speed=0.106x    frame=   96 fps=2.6 q=-0.0 size=    2954kB time=00:00:03.95 bitrate=6113.1kbits/s speed=0.106x    frame=   98 fps=2.6 q=-0.0 size=    2954kB time=00:00:04.04 bitrate=5986.1kbits/s speed=0.106x    frame=  100 fps=2.6 q=-0.0 size=    2954kB time=00:00:04.12 bitrate=5865.7kbits/s speed=0.107x    frame=  102 fps=2.6 q=-0.0 size=    2954kB time=00:00:04.20 bitrate=5750.0kbits/s speed=0.107x    frame=  105 fps=2.6 q=-0.0 size=    3354kB time=00:00:04.33 bitrate=6339.3kbits/s speed=0.108x    frame=  107 fps=2.6 q=-0.0 size=    3354kB time=00:00:04.41 bitrate=6218.8kbits/s speed=0.109x    frame=  109 fps=2.6 q=-0.0 size=    3354kB time=00:00:04.50 bitrate=6104.1kbits/s speed=0.109x    frame=  111 fps=2.7 q=-0.0 size=    3354kB time=00:00:04.58 bitrate=5993.6kbits/s speed=0.11x    frame=  113 fps=2.7 q=-0.0 size=    3354kB time=00:00:04.66 bitrate=5885.7kbits/s speed=0.11x    frame=  115 fps=2.7 q=-0.0 size=    3665kB time=00:00:04.75 bitrate=6319.3kbits/s speed=0.11x    frame=  117 fps=2.7 q=-0.0 size=    3721kB time=00:00:04.83 bitrate=6306.0kbits/s speed=0.11x    frame=  119 fps=2.7 q=-0.0 size=    3721kB time=00:00:04.91 bitrate=6198.3kbits/s speed=0.111x    frame=  121 fps=2.7 q=-0.0 size=    3721kB time=00:00:05.00 bitrate=6095.4kbits/s speed=0.111x    frame=  123 fps=2.7 q=-0.0 size=    3721kB time=00:00:05.08 bitrate=5995.9kbits/s speed=0.111x    frame=  125 fps=2.7 q=-0.0 size=    3914kB time=00:00:05.16 bitrate=6204.2kbits/s speed=0.112x    frame=  127 fps=2.7 q=-0.0 size=    3960kB time=00:00:05.25 bitrate=6178.0kbits/s speed=0.112x    frame=  129 fps=2.7 q=-0.0 size=    4006kB time=00:00:05.33 bitrate=6152.3kbits/s speed=0.112x    frame=  131 fps=2.7 q=-0.0 size=    4053kB time=00:00:05.41 bitrate=6128.0kbits/s speed=0.112x    frame=  133 fps=2.7 q=-0.0 size=    4109kB time=00:00:05.50 bitrate=6118.4kbits/s speed=0.112x    frame=  135 fps=2.7 q=-0.0 size=    4164kB time=00:00:05.58 bitrate=6109.0kbits/s speed=0.112x    frame=  137 fps=2.7 q=-0.0 size=    4164kB time=00:00:05.66 bitrate=6018.4kbits/s speed=0.112x    frame=  139 fps=2.7 q=-0.0 size=    4219kB time=00:00:05.75 bitrate=6009.5kbits/s speed=0.112x    frame=  141 fps=2.7 q=-0.0 size=    4219kB time=00:00:05.83 bitrate=5924.0kbits/s speed=0.112x    frame=  143 fps=2.7 q=-0.0 size=    4219kB time=00:00:05.91 bitrate=5839.9kbits/s speed=0.112x    frame=  145 fps=2.7 q=-0.0 size=    4219kB time=00:00:06.00 bitrate=5759.1kbits/s speed=0.113x    frame=  147 fps=2.7 q=-0.0 size=    4219kB time=00:00:06.08 bitrate=5680.6kbits/s speed=0.113x    frame=  149 fps=2.7 q=-0.0 size=    4219kB time=00:00:06.16 bitrate=5603.2kbits/s speed=0.113x    frame=  151 fps=2.7 q=-0.0 size=    4506kB time=00:00:06.25 bitrate=5905.6kbits/s speed=0.113x    frame=  154 fps=2.8 q=-0.0 size=    4506kB time=00:00:06.37 bitrate=5789.9kbits/s speed=0.114x    frame=  156 fps=2.8 q=-0.0 size=    4506kB time=00:00:06.45 bitrate=5715.5kbits/s speed=0.114x    frame=  158 fps=2.8 q=-0.0 size=    4667kB time=00:00:06.54 bitrate=5843.4kbits/s speed=0.114x    frame=  160 fps=2.8 q=-0.0 size=    4667kB time=00:00:06.62 bitrate=5770.2kbits/s speed=0.114x    frame=  162 fps=2.8 q=-0.0 size=    4667kB time=00:00:06.70 bitrate=5698.8kbits/s speed=0.115x    frame=  164 fps=2.8 q=-0.0 size=    4784kB time=00:00:06.79 bitrate=5768.9kbits/s speed=0.115x    frame=  166 fps=2.8 q=-0.0 size=    4784kB time=00:00:06.87 bitrate=5699.3kbits/s speed=0.115x    frame=  168 fps=2.8 q=-0.0 size=    4916kB time=00:00:06.95 bitrate=5787.0kbits/s speed=0.115x    frame=  170 fps=2.8 q=-0.0 size=    4951kB time=00:00:07.04 bitrate=5758.8kbits/s speed=0.115x    frame=  172 fps=2.8 q=-0.0 size=    4987kB time=00:00:07.12 bitrate=5732.8kbits/s speed=0.115x    frame=  174 fps=2.8 q=-0.0 size=    5056kB time=00:00:07.20 bitrate=5745.2kbits/s speed=0.115x    frame=  176 fps=2.8 q=-0.0 size=    5091kB time=00:00:07.29 bitrate=5718.7kbits/s speed=0.115x    frame=  178 fps=2.8 q=-0.0 size=    5125kB time=00:00:07.37 bitrate=5692.1kbits/s speed=0.115x    frame=  180 fps=2.8 q=-0.0 size=    5125kB time=00:00:07.45 bitrate=5628.8kbits/s speed=0.115x    frame=  182 fps=2.8 q=-0.0 size=    5219kB time=00:00:07.54 bitrate=5668.3kbits/s speed=0.115x    frame=  184 fps=2.8 q=-0.0 size=    5219kB time=00:00:07.62 bitrate=5606.6kbits/s speed=0.115x    frame=  186 fps=2.8 q=-0.0 size=    5219kB time=00:00:07.70 bitrate=5546.3kbits/s speed=0.115x    frame=  188 fps=2.8 q=-0.0 size=    5219kB time=00:00:07.79 bitrate=5486.5kbits/s speed=0.116x    frame=  190 fps=2.8 q=-0.0 size=    5219kB time=00:00:07.87 bitrate=5428.7kbits/s speed=0.116x    frame=  192 fps=2.8 q=-0.0 size=    5219kB time=00:00:07.95 bitrate=5372.1kbits/s speed=0.116x    frame=  194 fps=2.8 q=-0.0 size=    5491kB time=00:00:08.04 bitrate=5593.1kbits/s speed=0.116x    frame=  197 fps=2.8 q=-0.0 size=    5585kB time=00:00:08.16 bitrate=5601.6kbits/s speed=0.117x    frame=  199 fps=2.8 q=-0.0 size=    5585kB time=00:00:08.25 bitrate=5545.3kbits/s speed=0.117x    frame=  201 fps=2.8 q=-0.0 size=    5651kB time=00:00:08.33 bitrate=5554.4kbits/s speed=0.117x    frame=  203 fps=2.8 q=-0.0 size=    5726kB time=00:00:08.41 bitrate=5572.3kbits/s speed=0.117x    frame=  205 fps=2.8 q=-0.0 size=    5726kB time=00:00:08.50 bitrate=5517.9kbits/s speed=0.117x    frame=  207 fps=2.8 q=-0.0 size=    5764kB time=00:00:08.58 bitrate=5501.1kbits/s speed=0.117x    frame=  209 fps=2.8 q=-0.0 size=    5840kB time=00:00:08.66 bitrate=5518.9kbits/s speed=0.117x    frame=  211 fps=2.8 q=-0.0 size=    5840kB time=00:00:08.75 bitrate=5466.5kbits/s speed=0.117x    frame=  213 fps=2.8 q=-0.0 size=    5840kB time=00:00:08.83 bitrate=5415.2kbits/s speed=0.117x    frame=  215 fps=2.8 q=-0.0 size=    5840kB time=00:00:08.91 bitrate=5364.2kbits/s speed=0.117x    frame=  217 fps=2.8 q=-0.0 size=    5840kB time=00:00:09.00 bitrate=5314.7kbits/s speed=0.117x    frame=  219 fps=2.8 q=-0.0 size=    5840kB time=00:00:09.08 bitrate=5266.1kbits/s speed=0.117x    frame=  221 fps=2.8 q=-0.0 size=    6123kB time=00:00:09.16 bitrate=5471.6kbits/s speed=0.118x    frame=  224 fps=2.8 q=-0.0 size=    6123kB time=00:00:09.29 bitrate=5398.0kbits/s speed=0.118x    frame=  226 fps=2.9 q=-0.0 size=    6123kB time=00:00:09.37 bitrate=5350.2kbits/s speed=0.118x    frame=  228 fps=2.9 q=-0.0 size=    6123kB time=00:00:09.45 bitrate=5303.2kbits/s speed=0.118x    frame=  230 fps=2.9 q=-0.0 size=    6123kB time=00:00:09.54 bitrate=5256.5kbits/s speed=0.119x    frame=  232 fps=2.9 q=-0.0 size=    6123kB time=00:00:09.62 bitrate=5211.2kbits/s speed=0.119x    frame=  235 fps=2.9 q=-0.0 size=    6388kB time=00:00:09.75 bitrate=5366.9kbits/s speed=0.119x    frame=  237 fps=2.9 q=-0.0 size=    6388kB time=00:00:09.83 bitrate=5321.6kbits/s speed=0.119x    frame=  239 fps=2.9 q=-0.0 size=    6388kB time=00:00:09.91 bitrate=5276.6kbits/s speed=0.119x    frame=  241 fps=2.9 q=-0.0 size=    6388kB time=00:00:10.00 bitrate=5232.8kbits/s speed=0.12x    frame=  243 fps=2.9 q=-0.0 size=    6388kB time=00:00:10.08 bitrate=5189.7kbits/s speed=0.12x    frame=  245 fps=2.9 q=-0.0 size=    6667kB time=00:00:10.16 bitrate=5371.4kbits/s speed=0.12x    frame=  248 fps=2.9 q=-0.0 size=    6667kB time=00:00:10.29 bitrate=5306.2kbits/s speed=0.12x    frame=  250 fps=2.9 q=-0.0 size=    6667kB time=00:00:10.37 bitrate=5263.7kbits/s speed=0.12x    frame=  252 fps=2.9 q=-0.0 size=    6667kB time=00:00:10.45 bitrate=5221.9kbits/s speed=0.12x    frame=  254 fps=2.9 q=-0.0 size=    6667kB time=00:00:10.54 bitrate=5180.3kbits/s speed=0.121x    frame=  256 fps=2.9 q=-0.0 size=    6667kB time=00:00:10.62 bitrate=5139.9kbits/s speed=0.121x    frame=  259 fps=2.9 q=-0.0 size=    6963kB time=00:00:10.75 bitrate=5305.4kbits/s speed=0.121x    frame=  261 fps=2.9 q=-0.0 size=    6963kB time=00:00:10.83 bitrate=5264.8kbits/s speed=0.121x    frame=  263 fps=2.9 q=-0.0 size=    6963kB time=00:00:10.91 bitrate=5224.3kbits/s speed=0.121x    frame=  265 fps=2.9 q=-0.0 size=    6963kB time=00:00:11.00 bitrate=5184.9kbits/s speed=0.121x    frame=  267 fps=2.9 q=-0.0 size=    6963kB time=00:00:11.08 bitrate=5146.0kbits/s speed=0.121x    frame=  269 fps=2.9 q=-0.0 size=    7234kB time=00:00:11.16 bitrate=5306.1kbits/s speed=0.122x    frame=  272 fps=2.9 q=-0.0 size=    7234kB time=00:00:11.29 bitrate=5247.4kbits/s speed=0.122x    frame=  274 fps=2.9 q=-0.0 size=    7234kB time=00:00:11.37 bitrate=5209.1kbits/s speed=0.122x    frame=  276 fps=2.9 q=-0.0 size=    7234kB time=00:00:11.45 bitrate=5171.4kbits/s speed=0.122x    frame=  278 fps=2.9 q=-0.0 size=    7234kB time=00:00:11.54 bitrate=5133.7kbits/s speed=0.122x    frame=  280 fps=2.9 q=-0.0 size=    7234kB time=00:00:11.62 bitrate=5097.1kbits/s speed=0.122x    frame=  283 fps=3.0 q=-0.0 size=    7493kB time=00:00:11.75 bitrate=5223.7kbits/s speed=0.123x    frame=  285 fps=3.0 q=-0.0 size=    7493kB time=00:00:11.83 bitrate=5187.1kbits/s speed=0.123x    frame=  287 fps=3.0 q=-0.0 size=    7493kB time=00:00:11.91 bitrate=5150.5kbits/s speed=0.123x    frame=  288 fps=3.0 q=-0.0 size=    7493kB time=00:00:11.95 bitrate=5132.8kbits/s speed=0.123x    frame=  290 fps=3.0 q=-0.0 size=    7493kB time=00:00:12.04 bitrate=5097.0kbits/s speed=0.123x    frame=  292 fps=3.0 q=-0.0 size=    7493kB time=00:00:12.12 bitrate=5062.1kbits/s speed=0.123x    frame=  294 fps=3.0 q=-0.0 size=    7779kB time=00:00:12.20 bitrate=5219.7kbits/s speed=0.123x    frame=  296 fps=3.0 q=-0.0 size=    7779kB time=00:00:12.29 bitrate=5184.0kbits/s speed=0.123x    frame=  298 fps=3.0 q=-0.0 size=    7779kB time=00:00:12.37 bitrate=5149.3kbits/s speed=0.123x    frame=  300 fps=3.0 q=-0.0 size=    7779kB time=00:00:12.45 bitrate=5115.0kbits/s speed=0.123x    frame=  302 fps=3.0 q=-0.0 size=    7779kB time=00:00:12.54 bitrate=5080.7kbits/s speed=0.123x    frame=  304 fps=3.0 q=-0.0 size=    7779kB time=00:00:12.62 bitrate=5047.3kbits/s speed=0.124x    frame=  307 fps=3.0 q=-0.0 size=    7988kB time=00:00:12.75 bitrate=5132.2kbits/s speed=0.124x    frame=  309 fps=3.0 q=-0.0 size=    7988kB time=00:00:12.83 bitrate=5099.0kbits/s speed=0.124x    frame=  311 fps=3.0 q=-0.0 size=    7988kB time=00:00:12.91 bitrate=5065.9kbits/s speed=0.124x    frame=  313 fps=3.0 q=-0.0 size=    7988kB time=00:00:13.00 bitrate=5033.5kbits/s speed=0.124x    frame=  315 fps=3.0 q=-0.0 size=    7988kB time=00:00:13.08 bitrate=5001.6kbits/s speed=0.124x    frame=  317 fps=3.0 q=-0.0 size=    8181kB time=00:00:13.16 bitrate=5089.7kbits/s speed=0.125x    frame=  320 fps=3.0 q=-0.0 size=    8181kB time=00:00:13.29 bitrate=5041.8kbits/s speed=0.125x    frame=  322 fps=3.0 q=-0.0 size=    8181kB time=00:00:13.37 bitrate=5010.5kbits/s speed=0.125x    frame=  324 fps=3.0 q=-0.0 size=    8181kB time=00:00:13.45 bitrate=4979.6kbits/s speed=0.125x    frame=  326 fps=3.0 q=-0.0 size=    8181kB time=00:00:13.54 bitrate=4948.8kbits/s speed=0.125x    frame=  328 fps=3.0 q=-0.0 size=    8181kB time=00:00:13.62 bitrate=4918.6kbits/s speed=0.125x    frame=  331 fps=3.0 q=-0.0 size=    8380kB time=00:00:13.75 bitrate=4992.1kbits/s speed=0.126x    frame=  333 fps=3.0 q=-0.0 size=    8380kB time=00:00:13.83 bitrate=4962.1kbits/s speed=0.126x    frame=  335 fps=3.0 q=-0.0 size=    8380kB time=00:00:13.91 bitrate=4932.2kbits/s speed=0.126x    frame=  337 fps=3.0 q=-0.0 size=    8380kB time=00:00:14.00 bitrate=4902.9kbits/s speed=0.126x    frame=  339 fps=3.0 q=-0.0 size=    8380kB time=00:00:14.08 bitrate=4874.0kbits/s speed=0.126x    frame=  341 fps=3.0 q=-0.0 size=    8578kB time=00:00:14.16 bitrate=4960.0kbits/s speed=0.126x    frame=  344 fps=3.0 q=-0.0 size=    8578kB time=00:00:14.29 bitrate=4916.6kbits/s speed=0.127x    frame=  346 fps=3.0 q=-0.0 size=    8578kB time=00:00:14.37 bitrate=4888.2kbits/s speed=0.127x    frame=  348 fps=3.1 q=-0.0 size=    8578kB time=00:00:14.45 bitrate=4860.1kbits/s speed=0.127x    frame=  350 fps=3.1 q=-0.0 size=    8578kB time=00:00:14.54 bitrate=4832.1kbits/s speed=0.127x    frame=  352 fps=3.1 q=-0.0 size=    8578kB time=00:00:14.62 bitrate=4804.6kbits/s speed=0.127x    frame=  355 fps=3.1 q=-0.0 size=    8764kB time=00:00:14.75 bitrate=4867.3kbits/s speed=0.127x    frame=  357 fps=3.1 q=-0.0 size=    8764kB time=00:00:14.83 bitrate=4840.0kbits/s speed=0.127x    frame=  359 fps=3.1 q=-0.0 size=    8764kB time=00:00:14.91 bitrate=4812.8kbits/s speed=0.127x    frame=  361 fps=3.1 q=-0.0 size=    8764kB time=00:00:15.00 bitrate=4786.1kbits/s speed=0.127x    frame=  363 fps=3.1 q=-0.0 size=    8936kB time=00:00:15.08 bitrate=4853.0kbits/s speed=0.127x    frame=  365 fps=3.1 q=-0.0 size=    8936kB time=00:00:15.16 bitrate=4826.1kbits/s speed=0.127x    frame=  367 fps=3.1 q=-0.0 size=    8936kB time=00:00:15.25 bitrate=4799.8kbits/s speed=0.127x    frame=  369 fps=3.1 q=-0.0 size=    8936kB time=00:00:15.33 bitrate=4773.8kbits/s speed=0.127x    frame=  371 fps=3.1 q=-0.0 size=    8936kB time=00:00:15.41 bitrate=4747.8kbits/s speed=0.127x    frame=  373 fps=3.1 q=-0.0 size=    8936kB time=00:00:15.50 bitrate=4722.4kbits/s speed=0.128x    frame=  375 fps=3.1 q=-0.0 size=    9137kB time=00:00:15.58 bitrate=4803.0kbits/s speed=0.128x    frame=  378 fps=3.1 q=-0.0 size=    9137kB time=00:00:15.70 bitrate=4764.8kbits/s speed=0.128x    frame=  380 fps=3.1 q=-0.0 size=    9137kB time=00:00:15.79 bitrate=4739.4kbits/s speed=0.128x    frame=  382 fps=3.1 q=-0.0 size=    9137kB time=00:00:15.87 bitrate=4714.6kbits/s speed=0.128x    frame=  384 fps=3.1 q=-0.0 size=    9137kB time=00:00:15.95 bitrate=4690.1kbits/s speed=0.128x    frame=  386 fps=3.1 q=-0.0 size=    9137kB time=00:00:16.04 bitrate=4665.6kbits/s speed=0.128x    frame=  389 fps=3.1 q=-0.0 size=    9320kB time=00:00:16.16 bitrate=4722.4kbits/s speed=0.128x    frame=  391 fps=3.1 q=-0.0 size=    9320kB time=00:00:16.25 bitrate=4698.2kbits/s speed=0.129x    frame=  393 fps=3.1 q=-0.0 size=    9320kB time=00:00:16.33 bitrate=4674.4kbits/s speed=0.129x    frame=  395 fps=3.1 q=-0.0 size=    9320kB time=00:00:16.41 bitrate=4650.5kbits/s speed=0.129x    frame=  397 fps=3.1 q=-0.0 size=    9320kB time=00:00:16.50 bitrate=4627.1kbits/s speed=0.129x    frame=  399 fps=3.1 q=-0.0 size=    9631kB time=00:00:16.58 bitrate=4757.5kbits/s speed=0.129x    frame=  402 fps=3.1 q=-0.0 size=    9631kB time=00:00:16.70 bitrate=4721.9kbits/s speed=0.129x    frame=  404 fps=3.1 q=-0.0 size=    9631kB time=00:00:16.79 bitrate=4698.3kbits/s speed=0.129x    frame=  406 fps=3.1 q=-0.0 size=    9631kB time=00:00:16.87 bitrate=4675.2kbits/s speed=0.129x    frame=  408 fps=3.1 q=-0.0 size=    9631kB time=00:00:16.95 bitrate=4652.3kbits/s speed=0.129x    frame=  410 fps=3.1 q=-0.0 size=    9631kB time=00:00:17.04 bitrate=4629.4kbits/s speed=0.129x    frame=  413 fps=3.1 q=-0.0 size=    9929kB time=00:00:17.16 bitrate=4737.8kbits/s speed=0.129x    frame=  415 fps=3.1 q=-0.0 size=    9929kB time=00:00:17.25 bitrate=4715.1kbits/s speed=0.13x    frame=  417 fps=3.1 q=-0.0 size=    9929kB time=00:00:17.33 bitrate=4692.5kbits/s speed=0.13x    frame=  419 fps=3.1 q=-0.0 size=   10066kB time=00:00:17.41 bitrate=4734.3kbits/s speed=0.13x    frame=  421 fps=3.1 q=-0.0 size=   10066kB time=00:00:17.50 bitrate=4711.8kbits/s speed=0.13x    frame=  423 fps=3.1 q=-0.0 size=   10066kB time=00:00:17.58 bitrate=4689.6kbits/s speed=0.13x    frame=  425 fps=3.1 q=-0.0 size=   10066kB time=00:00:17.66 bitrate=4667.3kbits/s speed=0.13x    frame=  427 fps=3.1 q=-0.0 size=   10066kB time=00:00:17.75 bitrate=4645.4kbits/s speed=0.13x    frame=  429 fps=3.1 q=-0.0 size=   10066kB time=00:00:17.83 bitrate=4623.8kbits/s speed=0.13x    frame=  431 fps=3.1 q=-0.0 size=   10424kB time=00:00:17.91 bitrate=4765.8kbits/s speed=0.13x    frame=  434 fps=3.1 q=-0.0 size=   10424kB time=00:00:18.04 bitrate=4732.8kbits/s speed=0.13x    frame=  436 fps=3.1 q=-0.0 size=   10424kB time=00:00:18.12 bitrate=4711.2kbits/s speed=0.13x    frame=  438 fps=3.1 q=-0.0 size=   10424kB time=00:00:18.20 bitrate=4689.7kbits/s speed=0.13x    frame=  440 fps=3.1 q=-0.0 size=   10424kB time=00:00:18.29 bitrate=4668.1kbits/s speed=0.13x    frame=  442 fps=3.1 q=-0.0 size=   10424kB time=00:00:18.37 bitrate=4647.1kbits/s speed=0.13x    frame=  445 fps=3.1 q=-0.0 size=   10643kB time=00:00:18.50 bitrate=4712.5kbits/s speed=0.13x    frame=  447 fps=3.1 q=-0.0 size=   10643kB time=00:00:18.58 bitrate=4691.5kbits/s speed=0.131x    frame=  449 fps=3.1 q=-0.0 size=   10643kB time=00:00:18.66 bitrate=4670.4kbits/s speed=0.131x    frame=  451 fps=3.1 q=-0.0 size=   10643kB time=00:00:18.75 bitrate=4649.7kbits/s speed=0.131x    frame=  453 fps=3.1 q=-0.0 size=   10643kB time=00:00:18.83 bitrate=4629.2kbits/s speed=0.131x    frame=  455 fps=3.1 q=-0.0 size=   10869kB time=00:00:18.91 bitrate=4706.7kbits/s speed=0.131x    frame=  457 fps=3.1 q=-0.0 size=   10869kB time=00:00:19.00 bitrate=4686.2kbits/s speed=0.131x    frame=  459 fps=3.1 q=-0.0 size=   10869kB time=00:00:19.08 bitrate=4665.8kbits/s speed=0.131x    frame=  461 fps=3.1 q=-0.0 size=   10869kB time=00:00:19.16 bitrate=4645.3kbits/s speed=0.131x    frame=  463 fps=3.1 q=-0.0 size=   10869kB time=00:00:19.25 bitrate=4625.3kbits/s speed=0.131x    frame=  465 fps=3.1 q=-0.0 size=   10869kB time=00:00:19.33 bitrate=4605.5kbits/s speed=0.131x    frame=  467 fps=3.1 q=-0.0 size=   11100kB time=00:00:19.41 bitrate=4682.7kbits/s speed=0.131x    frame=  470 fps=3.1 q=-0.0 size=   11100kB time=00:00:19.54 bitrate=4652.7kbits/s speed=0.131x    frame=  472 fps=3.1 q=-0.0 size=   11100kB time=00:00:19.62 bitrate=4633.1kbits/s speed=0.131x    frame=  474 fps=3.1 q=-0.0 size=   11100kB time=00:00:19.70 bitrate=4613.5kbits/s speed=0.131x    frame=  476 fps=3.1 q=-0.0 size=   11100kB time=00:00:19.79 bitrate=4594.0kbits/s speed=0.131x    frame=  478 fps=3.1 q=-0.0 size=   11100kB time=00:00:19.87 bitrate=4574.8kbits/s speed=0.131x    frame=  481 fps=3.2 q=-0.0 size=   11316kB time=00:00:20.00 bitrate=4635.0kbits/s speed=0.131x    frame=  483 fps=3.2 q=-0.0 size=   11316kB time=00:00:20.08 bitrate=4615.8kbits/s speed=0.131x    frame=  485 fps=3.2 q=-0.0 size=   11316kB time=00:00:20.16 bitrate=4596.6kbits/s speed=0.131x    frame=  487 fps=3.2 q=-0.0 size=   11316kB time=00:00:20.25 bitrate=4577.7kbits/s speed=0.131x    frame=  489 fps=3.2 q=-0.0 size=   11316kB time=00:00:20.33 bitrate=4559.0kbits/s speed=0.131x    frame=  491 fps=3.2 q=-0.0 size=   11532kB time=00:00:20.41 bitrate=4626.7kbits/s speed=0.131x    frame=  494 fps=3.2 q=-0.0 size=   11532kB time=00:00:20.54 bitrate=4598.6kbits/s speed=0.131x    frame=  496 fps=3.2 q=-0.0 size=   11532kB time=00:00:20.62 bitrate=4580.1kbits/s speed=0.131x    frame=  498 fps=3.2 q=-0.0 size=   11532kB time=00:00:20.70 bitrate=4561.7kbits/s speed=0.132x    frame=  500 fps=3.2 q=-0.0 size=   11532kB time=00:00:20.79 bitrate=4543.3kbits/s speed=0.132x    frame=  500 fps=3.2 q=-0.0 Lsize=   11761kB time=00:00:20.79 bitrate=4633.6kbits/s speed=0.131x    
video:11750kB audio:0kB subtitle:0kB other streams:0kB global headers:3kB muxing overhead: 0.093641%
bench: utime=138.528s
bench: maxrss=226788kB
